<svg xmlns="http://www.w3.org/2000/svg" xmlns:xlink="http://www.w3.org/1999/xlink" width="373px" height="50px" version="1.1"><defs/><g transform="translate(0.5,0.5)"><rect x="71" y="18" width="110" height="30" fill="#ffffff" stroke="#000000" pointer-events="none"/><g fill="#000000" font-family="Helvetica" text-anchor="middle" font-size="12px"><text x="126" y="37">:ServiceProxy</text></g><path d="M 1 33 L 71 33" fill="none" stroke="#000000" stroke-miterlimit="10" pointer-events="none"/><rect x="11" y="13" width="50" height="15" fill="none" stroke="none" pointer-events="none"/><g fill="#000000" font-family="Helvetica" font-size="12px"><text x="13" y="25">1: doIt()</text></g><path d="M 11 8 L 55 8" fill="none" stroke="#000000" stroke-miterlimit="10" pointer-events="none"/><path d="M 60 8 L 53 12 L 55 8 L 53 5 Z" fill="#000000" stroke="#000000" stroke-miterlimit="10" pointer-events="none"/><rect x="261" y="18" width="110" height="30" fill="#ffffff" stroke="#000000" pointer-events="none"/><g fill="#000000" font-family="Helvetica" text-anchor="middle" font-size="12px"><text x="316" y="37">:Service</text></g><path d="M 181 33 L 261 33" fill="none" stroke="#000000" stroke-miterlimit="10" pointer-events="none"/><rect x="201" y="13" width="50" height="15" fill="none" stroke="none" pointer-events="none"/><g fill="#000000" font-family="Helvetica" font-size="12px"><text x="203" y="25">1: doIt()</text></g><path d="M 201 8 L 245 8" fill="none" stroke="#000000" stroke-miterlimit="10" pointer-events="none"/><path d="M 250 8 L 243 12 L 245 8 L 243 5 Z" fill="#000000" stroke="#000000" stroke-miterlimit="10" pointer-events="none"/></g></svg>