<svg xmlns="http://www.w3.org/2000/svg" xmlns:xlink="http://www.w3.org/1999/xlink" width="333px" height="110px" version="1.1"><defs/><g transform="translate(0.5,0.5)"><rect x="221" y="18" width="110" height="30" fill="#ffffff" stroke="#000000" pointer-events="none"/><g fill="#000000" font-family="Helvetica" text-anchor="middle" font-size="12px"><text x="276" y="37">:Utility</text></g><path d="M 1 33 L 221 33" fill="none" stroke="#000000" stroke-miterlimit="10" pointer-events="none"/><rect x="31" y="13" width="150" height="20" fill="none" stroke="none" pointer-events="none"/><g fill="#000000" font-family="Helvetica" font-size="12px"><text x="33" y="27">1: operation1(:Unmarked)</text></g><path d="M 31 8 L 175 8" fill="none" stroke="#000000" stroke-miterlimit="10" pointer-events="none"/><path d="M 180 8 L 173 12 L 175 8 L 173 5 Z" fill="#000000" stroke="#000000" stroke-miterlimit="10" pointer-events="none"/><rect x="221" y="78" width="110" height="30" fill="#ffffff" stroke="#000000" pointer-events="none"/><g fill="#000000" font-family="Helvetica" text-anchor="middle" font-size="12px"><text x="276" y="97">:Utility</text></g><path d="M 1 93 L 221 93" fill="none" stroke="#000000" stroke-miterlimit="10" pointer-events="none"/><rect x="31" y="73" width="150" height="20" fill="none" stroke="none" pointer-events="none"/><g fill="#000000" font-family="Helvetica" font-size="12px"><text x="33" y="87">1: operation1(:Marked)</text></g><path d="M 31 68 L 175 68" fill="none" stroke="#000000" stroke-miterlimit="10" pointer-events="none"/><path d="M 180 68 L 173 72 L 175 68 L 173 65 Z" fill="#000000" stroke="#000000" stroke-miterlimit="10" pointer-events="none"/></g></svg>