<svg xmlns="http://www.w3.org/2000/svg" xmlns:xlink="http://www.w3.org/1999/xlink" width="113px" height="243px" version="1.1"><defs/><g transform="translate(0.5,0.5)"><rect x="1" y="1" width="110" height="30" fill="#ffffff" stroke="#000000" pointer-events="none"/><g fill="#000000" font-family="Helvetica" text-anchor="middle" font-size="12px"><text x="56" y="20">first : Object</text></g><rect x="1" y="71" width="110" height="30" fill="#ffffff" stroke="#000000" pointer-events="none"/><g fill="#000000" font-family="Helvetica" text-anchor="middle" font-size="12px"><text x="56" y="90"> : Object</text></g><rect x="1" y="141" width="110" height="30" fill="#ffffff" stroke="#000000" pointer-events="none"/><g fill="#000000" font-family="Helvetica" text-anchor="middle" font-size="12px"><text x="56" y="160"> : Object</text></g><rect x="1" y="211" width="110" height="30" fill="#ffffff" stroke="#000000" pointer-events="none"/><g fill="#000000" font-family="Helvetica" text-anchor="middle" font-size="12px"><text x="56" y="230">last : Object</text></g><path d="M 84 31 L 84 65" fill="none" stroke="#000000" stroke-miterlimit="10" pointer-events="none"/><path d="M 84 70 L 80 63 L 84 65 L 87 63 Z" fill="#000000" stroke="#000000" stroke-miterlimit="10" pointer-events="none"/><path d="M 84 101 L 84 135" fill="none" stroke="#000000" stroke-miterlimit="10" pointer-events="none"/><path d="M 84 140 L 80 133 L 84 135 L 87 133 Z" fill="#000000" stroke="#000000" stroke-miterlimit="10" pointer-events="none"/><path d="M 84 171 L 84 205" fill="none" stroke="#000000" stroke-miterlimit="10" pointer-events="none"/><path d="M 84 210 L 80 203 L 84 205 L 87 203 Z" fill="#000000" stroke="#000000" stroke-miterlimit="10" pointer-events="none"/><path d="M 29 211 L 29 177" fill="none" stroke="#000000" stroke-miterlimit="10" pointer-events="none"/><path d="M 29 172 L 32 179 L 29 177 L 25 179 Z" fill="#000000" stroke="#000000" stroke-miterlimit="10" pointer-events="none"/><path d="M 29 141 L 29 107" fill="none" stroke="#000000" stroke-miterlimit="10" pointer-events="none"/><path d="M 29 102 L 32 109 L 29 107 L 25 109 Z" fill="#000000" stroke="#000000" stroke-miterlimit="10" pointer-events="none"/><path d="M 29 71 L 29 37" fill="none" stroke="#000000" stroke-miterlimit="10" pointer-events="none"/><path d="M 29 32 L 32 39 L 29 37 L 25 39 Z" fill="#000000" stroke="#000000" stroke-miterlimit="10" pointer-events="none"/></g></svg>