<svg xmlns="http://www.w3.org/2000/svg" xmlns:xlink="http://www.w3.org/1999/xlink" width="558px" height="346px" version="1.1"><defs/><g transform="translate(0.5,0.5)"><rect x="291" y="14" width="110" height="40" fill="#ffffff" stroke="#000000" pointer-events="none"/><g fill="#000000" font-family="Helvetica" text-anchor="middle" font-size="12px"><text x="346" y="38">:MessageManager</text></g><path d="M 31 34 L 291 34" fill="none" stroke="#000000" stroke-miterlimit="10" pointer-events="none"/><rect x="71" y="54" width="130" height="40" fill="#ffffff" stroke="#000000" pointer-events="none"/><g fill="#000000" font-family="Helvetica" text-anchor="middle" font-size="12px"><text x="136" y="78">OutboundMessageIF</text></g><path d="M 319 54 L 319 59 Q 319 64 319 64 L 319 64 Q 319 64 319 69 L 319 72 Q 319 74 309 74 L 201 74" fill="none" stroke="#000000" stroke-miterlimit="10" pointer-events="none"/><rect x="318" y="194" width="110" height="40" fill="#ffffff" stroke="#000000" pointer-events="none"/><g fill="#000000" font-family="Helvetica" text-anchor="middle" font-size="12px"><text x="373" y="218">:MIMEParser</text></g><path d="M 346 54 L 346 194" fill="none" stroke="#000000" stroke-miterlimit="10" pointer-events="none"/><rect x="1" y="194" width="110" height="40" fill="#ffffff" stroke="#000000" pointer-events="none"/><g fill="#000000" font-family="Helvetica" text-anchor="middle" font-size="12px"><text x="56" y="218">builder:MAPIBuilder</text></g><path d="M 318 214 L 111 214" fill="none" stroke="#000000" stroke-miterlimit="10" pointer-events="none"/><rect x="318" y="304" width="110" height="40" fill="#ffffff" stroke="#000000" pointer-events="none"/><g fill="#000000" font-family="Helvetica" text-anchor="middle" font-size="12px"><text x="373" y="328">MessageBuilder</text></g><path d="M 373 234 L 373 304" fill="none" stroke="#000000" stroke-miterlimit="10" pointer-events="none"/><rect x="93" y="8" width="150" height="30" fill="none" stroke="none" pointer-events="none"/><g fill="#000000" font-family="Helvetica" text-anchor="middle" font-size="12px"><text x="168" y="27">1: receive(msg:MIMEMsg)</text></g><path d="M 93 8 L 237 8" fill="none" stroke="#000000" stroke-miterlimit="10" pointer-events="none"/><path d="M 242 8 L 235 12 L 237 8 L 235 5 Z" fill="#000000" stroke="#000000" stroke-miterlimit="10" pointer-events="none"/><rect x="211" y="50" width="70" height="30" fill="none" stroke="none" pointer-events="none"/><g fill="#000000" font-family="Helvetica" text-anchor="middle" font-size="12px"><text x="246" y="69">1.2: send()</text></g><path d="M 217 49 L 281 49" fill="none" stroke="#000000" stroke-miterlimit="10" pointer-events="none"/><path d="M 212 49 L 219 46 L 217 49 L 219 53 Z" fill="#000000" stroke="#000000" stroke-miterlimit="10" pointer-events="none"/><rect x="346" y="114" width="202" height="30" fill="none" stroke="none" pointer-events="none"/><g fill="#000000" font-family="Helvetica" text-anchor="middle" font-size="12px"><text x="447" y="133">1.1:outMsg = parse(msg:MIMEMsg)</text></g><path d="M 548 104 L 548 148" fill="none" stroke="#000000" stroke-miterlimit="10" pointer-events="none"/><path d="M 548 153 L 545 146 L 548 148 L 552 146 Z" fill="#000000" stroke="#000000" stroke-miterlimit="10" pointer-events="none"/><rect x="116" y="134" width="200" height="80" fill="none" stroke="none" pointer-events="none"/><g fill="#000000" font-family="Helvetica" font-size="12px"><text x="118" y="152">1.1.2: to(:String)</text><text x="118" y="166">1.1.3: from(:String)</text><text x="118" y="180">1.1.4: plainText(:String)</text><text x="118" y="194">1.1.5: jpegImage(:Image)</text><text x="118" y="208">1.1.6: outMsg = getOutboundMsg()</text></g><path d="M 112 133 L 321 133" fill="none" stroke="#000000" stroke-miterlimit="10" pointer-events="none"/><path d="M 107 133 L 114 130 L 112 133 L 114 137 Z" fill="#000000" stroke="#000000" stroke-miterlimit="10" pointer-events="none"/><rect x="162" y="255" width="202" height="30" fill="none" stroke="none" pointer-events="none"/><g fill="#000000" font-family="Helvetica" text-anchor="middle" font-size="12px"><text x="263" y="274">1.1.1: builder = getInstance(to :String)</text></g><path d="M 153 245 L 153 289" fill="none" stroke="#000000" stroke-miterlimit="10" pointer-events="none"/><path d="M 153 294 L 150 287 L 153 289 L 157 287 Z" fill="#000000" stroke="#000000" stroke-miterlimit="10" pointer-events="none"/></g></svg>