<svg xmlns="http://www.w3.org/2000/svg" xmlns:xlink="http://www.w3.org/1999/xlink" width="463px" height="295px" version="1.1"><defs/><g transform="translate(0.5,0.5)"><rect x="326" y="13" width="110" height="50" fill="#ffffff" stroke="#000000" pointer-events="none"/><g fill="#000000" font-family="Helvetica" text-anchor="middle" font-size="12px"><text x="381" y="42">AbstractBuilder</text></g><rect x="1" y="78" width="110" height="50" fill="#ffffff" stroke="#000000" pointer-events="none"/><g fill="#000000" font-family="Helvetica" text-anchor="middle" font-size="12px"><text x="56" y="107">:Client</text></g><rect x="301" y="243" width="160" height="50" fill="#ffffff" stroke="#000000" pointer-events="none"/><g fill="#000000" font-family="Helvetica" text-anchor="middle" font-size="12px"><text x="381" y="272">builder :ConcretBuilder</text></g><rect x="1" y="243" width="110" height="50" fill="#ffffff" stroke="#000000" pointer-events="none"/><g fill="#000000" font-family="Helvetica" text-anchor="middle" font-size="12px"><text x="56" y="272">:Director</text></g><path d="M 56 78 L 56 48 Q 56 38 66 38 L 326 38" fill="none" stroke="#000000" stroke-miterlimit="10" pointer-events="none"/><path d="M 56 128 L 56 243" fill="none" stroke="#000000" stroke-miterlimit="10" pointer-events="none"/><path d="M 111 103 L 371 103 Q 381 103 381 113 L 381 243" fill="none" stroke="#000000" stroke-miterlimit="10" pointer-events="none"/><path d="M 111 268 L 301 268" fill="none" stroke="#000000" stroke-miterlimit="10" pointer-events="none"/><rect x="101" y="8" width="160" height="30" fill="none" stroke="none" pointer-events="none"/><g fill="#000000" font-family="Helvetica" text-anchor="middle" font-size="12px"><text x="181" y="27">1: builder = getInstance()</text></g><path d="M 111 8 L 255 8" fill="none" stroke="#000000" stroke-miterlimit="10" pointer-events="none"/><path d="M 260 8 L 253 12 L 255 8 L 253 5 Z" fill="#000000" stroke="#000000" stroke-miterlimit="10" pointer-events="none"/><rect x="151" y="73" width="160" height="30" fill="none" stroke="none" pointer-events="none"/><g fill="#000000" font-family="Helvetica" text-anchor="middle" font-size="12px"><text x="231" y="92">3: product = getProduct()</text></g><path d="M 161 73 L 305 73" fill="none" stroke="#000000" stroke-miterlimit="10" pointer-events="none"/><path d="M 310 73 L 303 77 L 305 73 L 303 70 Z" fill="#000000" stroke="#000000" stroke-miterlimit="10" pointer-events="none"/><rect x="63" y="144" width="190" height="40" fill="none" stroke="none" pointer-events="none"/><g fill="#000000" font-family="Helvetica" text-anchor="middle" font-size="12px"><text x="158" y="168">2: build(builder :AbstractBuilder)</text></g><path d="M 64 141 L 64 185" fill="none" stroke="#000000" stroke-miterlimit="10" pointer-events="none"/><path d="M 64 190 L 61 183 L 64 185 L 68 183 Z" fill="#000000" stroke="#000000" stroke-miterlimit="10" pointer-events="none"/><rect x="121" y="213" width="160" height="60" fill="none" stroke="none" pointer-events="none"/><g fill="#000000" font-family="Helvetica" text-anchor="middle" font-size="12px"><text x="201" y="233">2.1: buildPart1()</text><text x="201" y="247">2.2: buildPart2()</text><text x="201" y="261">...</text></g><path d="M 131 213 L 275 213" fill="none" stroke="#000000" stroke-miterlimit="10" pointer-events="none"/><path d="M 280 213 L 273 217 L 275 213 L 273 210 Z" fill="#000000" stroke="#000000" stroke-miterlimit="10" pointer-events="none"/></g></svg>